# This file uses centimeters as units for non-parametric coordinates.

mtllib Arrow.mtl
g default
v -0.005576 -0.309017 0.000000
v -0.004744 -0.587786 0.000000
v -0.003446 -0.809017 0.000000
v -0.001812 -0.951057 0.000000
v 0.000000 -1.000000 0.000000
v 0.001812 -0.951057 0.000000
v 0.003446 -0.809017 0.000000
v 0.004744 -0.587785 0.000000
v 0.005576 -0.309017 0.000000
v 0.005863 0.000000 0.000000
v 0.005576 0.309017 0.000000
v 0.004744 0.587785 0.000000
v 0.003446 0.809017 0.000000
v 0.001812 0.951057 0.000000
v 0.000000 1.000000 0.000000
v -0.001812 0.951057 0.000000
v -0.003446 0.809017 0.000000
v -0.004744 0.587785 0.000000
v -0.005576 0.309017 0.000000
v -0.005863 0.000000 0.000000
v 0.000000 -0.000000 -2.000000
v -0.001892 0.127437 -0.022675
v -0.001610 0.242399 -0.022675
v -0.001169 0.333634 -0.022675
v -0.000615 0.392210 -0.022675
v 0.000000 0.412394 -0.022675
v 0.000615 0.392210 -0.022675
v 0.001169 0.333634 -0.022675
v 0.001610 0.242399 -0.022675
v 0.001892 0.127437 -0.022675
v 0.001990 -0.000000 -0.022675
v 0.001892 -0.127437 -0.022675
v 0.001610 -0.242399 -0.022675
v 0.001169 -0.333634 -0.022675
v 0.000615 -0.392210 -0.022675
v 0.000000 -0.412394 -0.022675
v -0.000615 -0.392210 -0.022675
v -0.001169 -0.333634 -0.022675
v -0.001610 -0.242399 -0.022675
v -0.001892 -0.127437 -0.022675
v -0.001990 -0.000000 -0.022675
v -0.001892 0.127437 1.977325
v -0.001610 0.242399 1.977325
v -0.001169 0.333634 1.977325
v -0.000615 0.392210 1.977325
v 0.000000 0.412394 1.977325
v 0.000615 0.392210 1.977325
v 0.001169 0.333634 1.977325
v 0.001610 0.242399 1.977325
v 0.001892 0.127437 1.977325
v 0.001990 0.000000 1.977325
v 0.001892 -0.127437 1.977325
v 0.001610 -0.242399 1.977325
v 0.001169 -0.333634 1.977325
v 0.000615 -0.392210 1.977325
v 0.000000 -0.412394 1.977325
v -0.000615 -0.392210 1.977325
v -0.001169 -0.333634 1.977325
v -0.001610 -0.242399 1.977325
v -0.001892 -0.127437 1.977325
v -0.001990 0.000000 1.977325
v 0.000000 -0.000000 -0.022675
v 0.000000 0.000000 1.977325
vt 0.737764 0.172746
vt 0.702254 0.103054
vt 0.646946 0.047746
vt 0.577254 0.012236
vt 0.500000 -0.000000
vt 0.422746 0.012236
vt 0.353054 0.047746
vt 0.297746 0.103054
vt 0.262236 0.172746
vt 0.250000 0.250000
vt 0.262236 0.327254
vt 0.297746 0.396946
vt 0.353054 0.452254
vt 0.422746 0.487764
vt 0.500000 0.500000
vt 0.577254 0.487764
vt 0.646946 0.452254
vt 0.702254 0.396946
vt 0.737764 0.327254
vt 0.750000 0.250000
vt 0.250000 0.500000
vt 0.275000 0.500000
vt 0.300000 0.500000
vt 0.325000 0.500000
vt 0.350000 0.500000
vt 0.375000 0.500000
vt 0.400000 0.500000
vt 0.425000 0.500000
vt 0.450000 0.500000
vt 0.475000 0.500000
vt 0.500000 0.500000
vt 0.525000 0.500000
vt 0.550000 0.500000
vt 0.575000 0.500000
vt 0.600000 0.500000
vt 0.625000 0.500000
vt 0.650000 0.500000
vt 0.675000 0.500000
vt 0.700000 0.500000
vt 0.725000 0.500000
vt 0.750000 0.500000
vt 0.500000 1.000000
vt 0.375000 0.312500
vt 0.387500 0.312500
vt 0.387500 0.688440
vt 0.375000 0.688440
vt 0.400000 0.312500
vt 0.400000 0.688440
vt 0.412500 0.312500
vt 0.412500 0.688440
vt 0.425000 0.312500
vt 0.425000 0.688440
vt 0.437500 0.312500
vt 0.437500 0.688440
vt 0.450000 0.312500
vt 0.450000 0.688440
vt 0.462500 0.312500
vt 0.462500 0.688440
vt 0.475000 0.312500
vt 0.475000 0.688440
vt 0.487500 0.312500
vt 0.487500 0.688440
vt 0.500000 0.312500
vt 0.500000 0.688440
vt 0.512500 0.312500
vt 0.512500 0.688440
vt 0.525000 0.312500
vt 0.525000 0.688440
vt 0.537500 0.312500
vt 0.537500 0.688440
vt 0.550000 0.312500
vt 0.550000 0.688440
vt 0.562500 0.312500
vt 0.562500 0.688440
vt 0.575000 0.312500
vt 0.575000 0.688440
vt 0.587500 0.312500
vt 0.587500 0.688440
vt 0.600000 0.312500
vt 0.600000 0.688440
vt 0.612500 0.312500
vt 0.612500 0.688440
vt 0.625000 0.312500
vt 0.625000 0.688440
vt 0.626409 0.064408
vt 0.648603 0.107966
vt 0.500000 0.150000
vt 0.591842 0.029841
vt 0.548284 0.007647
vt 0.500000 -0.000000
vt 0.451716 0.007647
vt 0.408159 0.029841
vt 0.373591 0.064409
vt 0.351397 0.107966
vt 0.343750 0.156250
vt 0.351397 0.204534
vt 0.373591 0.248091
vt 0.408159 0.282659
vt 0.451716 0.304853
vt 0.500000 0.312500
vt 0.548284 0.304853
vt 0.591841 0.282659
vt 0.626409 0.248091
vt 0.648603 0.204534
vt 0.656250 0.156250
vt 0.648603 0.892034
vt 0.626409 0.935591
vt 0.500000 0.837500
vt 0.591841 0.970159
vt 0.548284 0.992353
vt 0.500000 1.000000
vt 0.451716 0.992353
vt 0.408159 0.970159
vt 0.373591 0.935591
vt 0.351397 0.892034
vt 0.343750 0.843750
vt 0.351397 0.795466
vt 0.373591 0.751909
vt 0.408159 0.717341
vt 0.451716 0.695147
vt 0.500000 0.687500
vt 0.548284 0.695147
vt 0.591842 0.717341
vt 0.626409 0.751908
vt 0.648603 0.795466
vt 0.656250 0.843750
vn 0.000000 0.000000 1.000000
vn 0.000000 0.000000 1.000000
vn 0.000000 0.000000 1.000000
vn 0.000000 0.000000 1.000000
vn 0.000000 0.000000 1.000000
vn 0.000000 0.000000 1.000000
vn 0.000000 0.000000 1.000000
vn 0.000000 0.000000 1.000000
vn 0.000000 0.000000 1.000000
vn 0.000000 0.000000 1.000000
vn 0.000000 0.000000 1.000000
vn 0.000000 0.000000 1.000000
vn 0.000000 0.000000 1.000000
vn 0.000000 0.000000 1.000000
vn 0.000000 0.000000 1.000000
vn 0.000000 0.000000 1.000000
vn 0.000000 0.000000 1.000000
vn 0.000000 0.000000 1.000000
vn 0.000000 0.000000 1.000000
vn 0.000000 0.000000 1.000000
vn -0.999993 -0.002006 -0.003098
vn 0.000293 0.000003 -1.000000
vn -0.999983 -0.004524 -0.003701
vn -0.999948 -0.008765 -0.005268
vn -0.999714 -0.021225 -0.010999
vn 0.000014 -0.894427 -0.447214
vn 0.999714 -0.021225 -0.010999
vn 0.999948 -0.008765 -0.005268
vn 0.999983 -0.004524 -0.003701
vn 0.999993 -0.002006 -0.003098
vn 0.999996 -0.000000 -0.002932
vn 0.999993 0.002006 -0.003098
vn 0.999983 0.004524 -0.003701
vn 0.999948 0.008765 -0.005268
vn 0.999714 0.021225 -0.010999
vn -0.000013 0.894427 -0.447214
vn -0.999714 0.021225 -0.010999
vn -0.999948 0.008765 -0.005268
vn -0.999983 0.004524 -0.003701
vn -0.999993 0.002006 -0.003098
vn -0.999996 0.000000 -0.002932
vn -0.999999 0.001568 0.000000
vn -0.999999 0.001568 0.000000
vn -0.999994 0.003505 0.000000
vn -0.999994 0.003505 0.000000
vn -0.999978 0.006640 0.000000
vn -0.999978 0.006640 0.000000
vn -0.999890 0.014847 0.000000
vn -0.999890 0.014847 0.000000
vn 0.000025 1.000000 0.000000
vn 0.000025 1.000000 0.000000
vn 0.999890 0.014847 0.000000
vn 0.999890 0.014847 0.000000
vn 0.999978 0.006640 0.000000
vn 0.999978 0.006640 0.000000
vn 0.999994 0.003505 0.000000
vn 0.999994 0.003505 0.000000
vn 0.999999 0.001568 0.000000
vn 0.999999 0.001568 0.000000
vn 1.000000 0.000000 0.000000
vn 1.000000 0.000000 0.000000
vn 0.999999 -0.001568 0.000000
vn 0.999999 -0.001568 0.000000
vn 0.999994 -0.003505 0.000000
vn 0.999994 -0.003505 0.000000
vn 0.999978 -0.006640 0.000000
vn 0.999978 -0.006640 0.000000
vn 0.999890 -0.014847 0.000000
vn 0.999890 -0.014847 0.000000
vn -0.000025 -1.000000 0.000000
vn -0.000025 -1.000000 0.000000
vn -0.999890 -0.014847 0.000000
vn -0.999890 -0.014847 0.000000
vn -0.999978 -0.006640 0.000000
vn -0.999978 -0.006640 0.000000
vn -0.999994 -0.003505 0.000000
vn -0.999994 -0.003505 0.000000
vn -0.999999 -0.001568 0.000000
vn -0.999999 -0.001568 0.000000
vn -1.000000 -0.000000 0.000000
vn -1.000000 -0.000000 0.000000
vn -0.000002 0.000000 -1.000000
vn 0.000000 0.000000 -1.000000
vn 0.000002 0.000000 -1.000000
vn -0.000000 0.000000 -1.000000
vn -0.000002 0.000000 -1.000000
vn 0.000001 0.000000 -1.000000
vn 0.000004 0.000000 -1.000000
vn -0.000000 0.000000 -1.000000
vn -0.000002 0.000000 -1.000000
vn 0.000002 0.000000 -1.000000
vn 0.000000 0.000000 -1.000000
vn 0.000000 0.000000 -1.000000
vn -0.000002 0.000000 -1.000000
vn -0.000000 0.000000 -1.000000
vn 0.000002 0.000000 -1.000000
vn -0.000001 0.000000 -1.000000
vn -0.000004 0.000000 -1.000000
vn 0.000004 0.000000 -1.000000
vn 0.000002 0.000000 -1.000000
vn -0.000002 0.000000 -1.000000
vn 0.000000 0.000000 -1.000000
vn 0.000000 0.000000 1.000000
vn 0.000000 0.000000 1.000000
vn 0.000117 0.000000 1.000000
vn 0.000000 0.000000 1.000000
vn -0.000264 0.000000 1.000000
vn 0.000000 0.000000 1.000000
vn 0.000264 0.000000 1.000000
vn 0.000058 0.000000 1.000000
vn -0.000117 0.000000 1.000000
vn 0.000000 0.000000 1.000000
vn 0.000000 0.000000 1.000000
vn 0.000000 0.000000 1.000000
vn -0.000117 0.000000 1.000000
vn -0.000000 0.000000 1.000000
vn 0.000264 0.000000 1.000000
vn -0.000000 0.000000 1.000000
vn -0.000264 0.000000 1.000000
vn 0.000000 0.000000 1.000000
vn 0.000117 0.000000 1.000000
vn 0.000000 0.000000 1.000000
vn 0.000000 0.000000 1.000000
s off
g pCone2
usemtl initialShadingGroup
f 1/1/1 2/2/2 3/3/3 4/4/4 5/5/5 6/6/6 7/7/7 8/8/8 9/9/9 10/10/10 11/11/11 12/12/12 13/13/13 14/14/14 15/15/15 16/16/16 17/17/17 18/18/18 19/19/19 20/20/20
s 1
f 1/21/21 21/42/22 2/22/23
f 2/22/23 21/42/22 3/23/24
f 3/23/24 21/42/22 4/24/25
f 4/24/25 21/42/22 5/25/26
f 5/25/26 21/42/22 6/26/27
f 6/26/27 21/42/22 7/27/28
f 7/27/28 21/42/22 8/28/29
f 8/28/29 21/42/22 9/29/30
f 9/29/30 21/42/22 10/30/31
f 10/30/31 21/42/22 11/31/32
f 11/31/32 21/42/22 12/32/33
f 12/32/33 21/42/22 13/33/34
f 13/33/34 21/42/22 14/34/35
f 14/34/35 21/42/22 15/35/36
f 15/35/36 21/42/22 16/36/37
f 16/36/37 21/42/22 17/37/38
f 17/37/38 21/42/22 18/38/39
f 18/38/39 21/42/22 19/39/40
f 19/39/40 21/42/22 20/40/41
f 20/40/41 21/42/22 1/41/21
s 2
f 22/43/42 42/46/43 43/45/44 23/44/45
f 23/44/45 43/45/44 44/48/46 24/47/47
f 24/47/47 44/48/46 45/50/48 25/49/49
f 25/49/49 45/50/48 46/52/50 26/51/51
f 26/51/51 46/52/50 47/54/52 27/53/53
f 27/53/53 47/54/52 48/56/54 28/55/55
f 28/55/55 48/56/54 49/58/56 29/57/57
f 29/57/57 49/58/56 50/60/58 30/59/59
f 30/59/59 50/60/58 51/62/60 31/61/61
f 31/61/61 51/62/60 52/64/62 32/63/63
f 32/63/63 52/64/62 53/66/64 33/65/65
f 33/65/65 53/66/64 54/68/66 34/67/67
f 34/67/67 54/68/66 55/70/68 35/69/69
f 35/69/69 55/70/68 56/72/70 36/71/71
f 36/71/71 56/72/70 57/74/72 37/73/73
f 37/73/73 57/74/72 58/76/74 38/75/75
f 38/75/75 58/76/74 59/78/76 39/77/77
f 39/77/77 59/78/76 60/80/78 40/79/79
f 40/79/79 60/80/78 61/82/80 41/81/81
f 41/81/81 61/82/80 42/84/43 22/83/42
s 3
f 23/85/82 62/87/83 22/86/84
f 24/88/85 62/87/83 23/85/82
f 25/89/86 62/87/83 24/88/85
f 26/90/87 62/87/83 25/89/86
f 27/91/88 62/87/83 26/90/87
f 28/92/89 62/87/83 27/91/88
f 29/93/90 62/87/83 28/92/89
f 30/94/91 62/87/83 29/93/90
f 31/95/92 62/87/83 30/94/91
f 32/96/93 62/87/83 31/95/92
f 33/97/94 62/87/83 32/96/93
f 34/98/95 62/87/83 33/97/94
f 35/99/96 62/87/83 34/98/95
f 36/100/97 62/87/83 35/99/96
f 37/101/98 62/87/83 36/100/97
f 38/102/99 62/87/83 37/101/98
f 39/103/100 62/87/83 38/102/99
f 40/104/101 62/87/83 39/103/100
f 41/105/102 62/87/83 40/104/101
f 22/86/84 62/87/83 41/105/102
s 4
f 42/106/103 63/108/104 43/107/105
f 43/107/105 63/108/104 44/109/106
f 44/109/106 63/108/104 45/110/107
f 45/110/107 63/108/104 46/111/108
f 46/111/108 63/108/104 47/112/109
f 47/112/109 63/108/104 48/113/110
f 48/113/110 63/108/104 49/114/111
f 49/114/111 63/108/104 50/115/112
f 50/115/112 63/108/104 51/116/113
f 51/116/113 63/108/104 52/117/114
f 52/117/114 63/108/104 53/118/115
f 53/118/115 63/108/104 54/119/116
f 54/119/116 63/108/104 55/120/117
f 55/120/117 63/108/104 56/121/118
f 56/121/118 63/108/104 57/122/119
f 57/122/119 63/108/104 58/123/120
f 58/123/120 63/108/104 59/124/121
f 59/124/121 63/108/104 60/125/122
f 60/125/122 63/108/104 61/126/123
f 61/126/123 63/108/104 42/106/103
