# This file uses centimeters as units for non-parametric coordinates.

v -4.776220 -4.776220 4.776220
v 4.776220 -4.776220 4.776220
v -4.776220 4.776220 4.776220
v 4.776220 4.776220 4.776220
v -4.776220 4.776220 -4.776220
v 4.776220 4.776220 -4.776220
v -4.776220 -4.776220 -4.776220
v 4.776220 -4.776220 -4.776220
vt 0.678592 0.320769
vt 0.969896 0.320769
vt 0.969896 0.612074
vt 0.678592 0.612074
vt 0.677613 0.655443
vt 0.968918 0.655443
vt 0.968918 0.946748
vt 0.677613 0.946748
vt 0.038799 0.944397
vt 0.038799 0.653092
vt 0.330104 0.653092
vt 0.330104 0.944397
vt 0.350303 0.317095
vt 0.641608 0.317095
vt 0.641608 0.608400
vt 0.350303 0.608400
vt 0.352345 0.652341
vt 0.643650 0.652341
vt 0.643650 0.943646
vt 0.352345 0.943646
vt 0.033438 0.319939
vt 0.324743 0.319939
vt 0.324743 0.611244
vt 0.033438 0.611244
vn 0.000000 0.000000 1.000000
vn 0.000000 0.000000 1.000000
vn 0.000000 0.000000 1.000000
vn 0.000000 0.000000 1.000000
vn 0.000000 1.000000 0.000000
vn 0.000000 1.000000 0.000000
vn 0.000000 1.000000 0.000000
vn 0.000000 1.000000 0.000000
vn 0.000000 0.000000 -1.000000
vn 0.000000 0.000000 -1.000000
vn 0.000000 0.000000 -1.000000
vn 0.000000 0.000000 -1.000000
vn 0.000000 -1.000000 0.000000
vn 0.000000 -1.000000 0.000000
vn 0.000000 -1.000000 0.000000
vn 0.000000 -1.000000 0.000000
vn 1.000000 0.000000 0.000000
vn 1.000000 0.000000 0.000000
vn 1.000000 0.000000 0.000000
vn 1.000000 0.000000 0.000000
vn -1.000000 0.000000 0.000000
vn -1.000000 0.000000 0.000000
vn -1.000000 0.000000 0.000000
vn -1.000000 0.000000 0.000000
f 1/17/1 2/18/2 3/20/3
f 3/20/3 2/18/2 4/19/4
f 3/9/5 4/10/6 5/12/7
f 5/12/7 4/10/6 6/11/8
f 5/21/9 6/22/10 7/24/11
f 7/24/11 6/22/10 8/23/12
f 7/13/13 8/14/14 1/16/15
f 1/16/15 8/14/14 2/15/16
f 2/1/17 8/2/18 4/4/19
f 4/4/19 8/2/18 6/3/20
f 7/5/21 1/6/22 5/8/23
f 5/8/23 1/6/22 3/7/24
