# This file uses centimeters as units for non-parametric coordinates.

v 1.902114 0.618034 -0.200000
v 1.618035 1.175571 -0.200000
v 1.175571 1.618035 -0.200000
v 0.618034 1.902114 -0.200000
v 0.000000 2.000001 -0.200000
v -0.618034 1.902114 -0.200000
v -1.175571 1.618035 -0.200000
v -1.618034 1.175571 -0.200000
v -1.902114 0.618034 -0.200000
v -2.000000 0.000000 -0.200000
v -1.902114 -0.618034 -0.200000
v -1.618034 -1.175571 -0.200000
v -1.175571 -1.618034 -0.200000
v -0.618034 -1.902113 -0.200000
v -0.000000 -2.000000 -0.200000
v 0.618034 -1.902113 -0.200000
v 1.175570 -1.618034 -0.200000
v 1.618034 -1.175571 -0.200000
v 1.902113 -0.618034 -0.200000
v 2.000000 0.000000 -0.200000
v 1.902114 0.618034 0.200000
v 1.618035 1.175571 0.200000
v 1.175571 1.618035 0.200000
v 0.618034 1.902114 0.200000
v 0.000000 2.000001 0.200000
v -0.618034 1.902114 0.200000
v -1.175571 1.618035 0.200000
v -1.618034 1.175571 0.200000
v -1.902114 0.618034 0.200000
v -2.000000 0.000000 0.200000
v -1.902114 -0.618034 0.200000
v -1.618034 -1.175571 0.200000
v -1.175571 -1.618034 0.200000
v -0.618034 -1.902113 0.200000
v -0.000000 -2.000000 0.200000
v 0.618034 -1.902113 0.200000
v 1.175570 -1.618034 0.200000
v 1.618034 -1.175571 0.200000
v 1.902113 -0.618034 0.200000
v 2.000000 0.000000 0.200000
v 0.000000 0.000000 -0.200000
v 0.000000 0.000000 0.200000
vt 0.098107 0.362860
vt 0.123193 0.415016
vt 0.163167 0.456866
vt 0.214118 0.484316
vt 0.271058 0.494678
vt 0.328412 0.486937
vt 0.380568 0.461851
vt 0.422418 0.421877
vt 0.449868 0.370926
vt 0.460230 0.313986
vt 0.452489 0.256632
vt 0.427403 0.204477
vt 0.387429 0.162626
vt 0.336478 0.135176
vt 0.279538 0.124814
vt 0.222184 0.132555
vt 0.170028 0.157641
vt 0.128178 0.197615
vt 0.100728 0.248566
vt 0.090366 0.305506
vt 0.698150 0.312500
vt 0.710650 0.312500
vt 0.723150 0.312500
vt 0.735650 0.312500
vt 0.748150 0.312500
vt 0.760650 0.312500
vt 0.773150 0.312500
vt 0.785650 0.312500
vt 0.798150 0.312500
vt 0.810650 0.312500
vt 0.823150 0.312500
vt 0.835650 0.312500
vt 0.848150 0.312500
vt 0.860650 0.312500
vt 0.873150 0.312500
vt 0.885650 0.312500
vt 0.898150 0.312500
vt 0.910650 0.312500
vt 0.923150 0.312500
vt 0.935650 0.312500
vt 0.948150 0.312500
vt 0.698150 0.688440
vt 0.710650 0.688440
vt 0.723150 0.688440
vt 0.735650 0.688440
vt 0.748150 0.688440
vt 0.760650 0.688440
vt 0.773150 0.688440
vt 0.785650 0.688440
vt 0.798150 0.688440
vt 0.810650 0.688440
vt 0.823150 0.688440
vt 0.835650 0.688440
vt 0.848150 0.688440
vt 0.860650 0.688440
vt 0.873150 0.688440
vt 0.885650 0.688440
vt 0.898150 0.688440
vt 0.910650 0.688440
vt 0.923150 0.688440
vt 0.935650 0.688440
vt 0.948150 0.688440
vt 0.447002 0.668287
vt 0.420943 0.617142
vt 0.380354 0.576554
vt 0.329210 0.550494
vt 0.272515 0.541515
vt 0.215821 0.550494
vt 0.164677 0.576554
vt 0.124088 0.617143
vt 0.098029 0.668287
vt 0.089049 0.724981
vt 0.098029 0.781676
vt 0.124088 0.832820
vt 0.164677 0.873409
vt 0.215821 0.899468
vt 0.272515 0.908448
vt 0.329210 0.899468
vt 0.380354 0.873409
vt 0.420943 0.832820
vt 0.447002 0.781676
vt 0.455982 0.724981
vt 0.275128 0.317143
vt 0.272515 0.717643
vn 0.951057 0.309016 0.000000
vn 0.809017 0.587785 0.000000
vn 0.951057 0.309016 0.000000
vn 0.809017 0.587785 0.000000
vn 0.587785 0.809017 0.000000
vn 0.587785 0.809017 0.000000
vn 0.309017 0.951057 0.000000
vn 0.309017 0.951057 0.000000
vn -0.000000 1.000000 0.000000
vn 0.000000 1.000000 0.000000
vn -0.309017 0.951057 0.000000
vn -0.309017 0.951057 0.000000
vn -0.587785 0.809017 0.000000
vn -0.587785 0.809017 0.000000
vn -0.809017 0.587785 0.000000
vn -0.809017 0.587785 0.000000
vn -0.951057 0.309017 0.000000
vn -0.951057 0.309017 0.000000
vn -1.000000 0.000000 0.000000
vn -1.000000 -0.000000 0.000000
vn -0.951057 -0.309017 0.000000
vn -0.951057 -0.309017 0.000000
vn -0.809017 -0.587785 0.000000
vn -0.809017 -0.587785 0.000000
vn -0.587785 -0.809017 0.000000
vn -0.587785 -0.809017 0.000000
vn -0.309017 -0.951057 0.000000
vn -0.309017 -0.951057 0.000000
vn 0.000000 -1.000000 0.000000
vn 0.000000 -1.000000 0.000000
vn 0.309017 -0.951057 0.000000
vn 0.309017 -0.951057 0.000000
vn 0.587785 -0.809017 0.000000
vn 0.587785 -0.809017 0.000000
vn 0.809017 -0.587785 0.000000
vn 0.809017 -0.587785 0.000000
vn 0.951057 -0.309017 0.000000
vn 0.951057 -0.309017 0.000000
vn 1.000000 -0.000001 0.000000
vn 1.000000 -0.000001 0.000000
vn 0.000000 -0.000000 -1.000000
vn 0.000000 -0.000000 -1.000000
vn 0.000000 -0.000000 -1.000000
vn 0.000000 -0.000000 -1.000000
vn 0.000000 -0.000000 -1.000000
vn 0.000000 -0.000000 -1.000000
vn 0.000000 -0.000000 -1.000000
vn 0.000000 -0.000000 -1.000000
vn 0.000000 -0.000000 -1.000000
vn 0.000000 -0.000000 -1.000000
vn 0.000000 -0.000000 -1.000000
vn 0.000000 -0.000000 -1.000000
vn 0.000000 -0.000000 -1.000000
vn 0.000000 -0.000000 -1.000000
vn 0.000000 -0.000000 -1.000000
vn 0.000000 -0.000000 -1.000000
vn 0.000000 -0.000000 -1.000000
vn 0.000000 -0.000000 -1.000000
vn 0.000000 -0.000000 -1.000000
vn 0.000000 -0.000000 -1.000000
vn 0.000000 -0.000000 -1.000000
vn 0.000000 0.000000 1.000000
vn 0.000000 0.000000 1.000000
vn 0.000000 0.000000 1.000000
vn 0.000000 0.000000 1.000000
vn 0.000000 0.000000 1.000000
vn 0.000000 0.000000 1.000000
vn 0.000000 0.000000 1.000000
vn 0.000000 0.000000 1.000000
vn 0.000000 0.000000 1.000000
vn 0.000000 0.000000 1.000000
vn 0.000000 0.000000 1.000000
vn 0.000000 0.000000 1.000000
vn 0.000000 0.000000 1.000000
vn 0.000000 0.000000 1.000000
vn 0.000000 0.000000 1.000000
vn 0.000000 0.000000 1.000000
vn 0.000000 0.000000 1.000000
vn 0.000000 0.000000 1.000000
vn 0.000000 0.000000 1.000000
vn 0.000000 0.000000 1.000000
vn 0.000000 0.000000 1.000000
f 1/21/1 2/22/2 21/42/3
f 21/42/3 2/22/2 22/43/4
f 2/22/2 3/23/5 22/43/4
f 22/43/4 3/23/5 23/44/6
f 3/23/5 4/24/7 23/44/6
f 23/44/6 4/24/7 24/45/8
f 4/24/7 5/25/9 24/45/8
f 24/45/8 5/25/9 25/46/10
f 5/25/9 6/26/11 25/46/10
f 25/46/10 6/26/11 26/47/12
f 6/26/11 7/27/13 26/47/12
f 26/47/12 7/27/13 27/48/14
f 7/27/13 8/28/15 27/48/14
f 27/48/14 8/28/15 28/49/16
f 8/28/15 9/29/17 28/49/16
f 28/49/16 9/29/17 29/50/18
f 9/29/17 10/30/19 29/50/18
f 29/50/18 10/30/19 30/51/20
f 10/30/19 11/31/21 30/51/20
f 30/51/20 11/31/21 31/52/22
f 11/31/21 12/32/23 31/52/22
f 31/52/22 12/32/23 32/53/24
f 12/32/23 13/33/25 32/53/24
f 32/53/24 13/33/25 33/54/26
f 13/33/25 14/34/27 33/54/26
f 33/54/26 14/34/27 34/55/28
f 14/34/27 15/35/29 34/55/28
f 34/55/28 15/35/29 35/56/30
f 15/35/29 16/36/31 35/56/30
f 35/56/30 16/36/31 36/57/32
f 16/36/31 17/37/33 36/57/32
f 36/57/32 17/37/33 37/58/34
f 17/37/33 18/38/35 37/58/34
f 37/58/34 18/38/35 38/59/36
f 18/38/35 19/39/37 38/59/36
f 38/59/36 19/39/37 39/60/38
f 19/39/37 20/40/39 39/60/38
f 39/60/38 20/40/39 40/61/40
f 20/40/39 1/41/1 40/61/40
f 40/61/40 1/41/1 21/62/3
f 2/2/41 1/1/42 41/83/43
f 3/3/44 2/2/41 41/83/43
f 4/4/45 3/3/44 41/83/43
f 5/5/46 4/4/45 41/83/43
f 6/6/47 5/5/46 41/83/43
f 7/7/48 6/6/47 41/83/43
f 8/8/49 7/7/48 41/83/43
f 9/9/50 8/8/49 41/83/43
f 10/10/51 9/9/50 41/83/43
f 11/11/52 10/10/51 41/83/43
f 12/12/53 11/11/52 41/83/43
f 13/13/54 12/12/53 41/83/43
f 14/14/55 13/13/54 41/83/43
f 15/15/56 14/14/55 41/83/43
f 16/16/57 15/15/56 41/83/43
f 17/17/58 16/16/57 41/83/43
f 18/18/59 17/17/58 41/83/43
f 19/19/60 18/18/59 41/83/43
f 20/20/61 19/19/60 41/83/43
f 1/1/42 20/20/61 41/83/43
f 21/81/62 22/80/63 42/84/64
f 22/80/63 23/79/65 42/84/64
f 23/79/65 24/78/66 42/84/64
f 24/78/66 25/77/67 42/84/64
f 25/77/67 26/76/68 42/84/64
f 26/76/68 27/75/69 42/84/64
f 27/75/69 28/74/70 42/84/64
f 28/74/70 29/73/71 42/84/64
f 29/73/71 30/72/72 42/84/64
f 30/72/72 31/71/73 42/84/64
f 31/71/73 32/70/74 42/84/64
f 32/70/74 33/69/75 42/84/64
f 33/69/75 34/68/76 42/84/64
f 34/68/76 35/67/77 42/84/64
f 35/67/77 36/66/78 42/84/64
f 36/66/78 37/65/79 42/84/64
f 37/65/79 38/64/80 42/84/64
f 38/64/80 39/63/81 42/84/64
f 39/63/81 40/82/82 42/84/64
f 40/82/82 21/81/62 42/84/64
