# This file uses centimeters as units for non-parametric coordinates.

v -0.107542 0.461331 0.149895
v -0.107542 0.392431 0.285118
v -0.107542 0.285118 0.392431
v -0.107542 0.149895 0.461331
v -0.107542 0.000000 0.485072
v -0.107542 -0.149895 0.461331
v -0.107542 -0.285118 0.392431
v -0.107542 -0.392431 0.285118
v -0.107542 -0.461331 0.149895
v -0.107542 -0.485072 -0.000000
v -0.107542 -0.461331 -0.149896
v -0.107542 -0.392431 -0.285118
v -0.107542 -0.285118 -0.392431
v -0.107542 -0.149895 -0.461331
v -0.107542 0.000000 -0.485072
v -0.107542 0.149895 -0.461331
v -0.107542 0.285118 -0.392431
v -0.107542 0.392431 -0.285118
v -0.107542 0.461331 -0.149895
v -0.107542 0.485072 -0.000000
v 0.107542 0.461331 0.149895
v 0.107542 0.392431 0.285118
v 0.107542 0.285118 0.392431
v 0.107542 0.149895 0.461331
v 0.107542 0.000000 0.485072
v 0.107542 -0.149895 0.461331
v 0.107542 -0.285118 0.392431
v 0.107542 -0.392431 0.285118
v 0.107542 -0.461331 0.149895
v 0.107542 -0.485072 -0.000000
v 0.107542 -0.461331 -0.149896
v 0.107542 -0.392431 -0.285118
v 0.107542 -0.285118 -0.392431
v 0.107542 -0.149895 -0.461331
v 0.107542 0.000000 -0.485072
v 0.107542 0.149895 -0.461331
v 0.107542 0.285118 -0.392431
v 0.107542 0.392431 -0.285118
v 0.107542 0.461331 -0.149895
v 0.107542 0.485072 -0.000000
v -0.107542 0.000000 -0.000000
v 0.107542 0.000000 -0.000000
vt 0.224003 0.300626
vt 0.251603 0.300626
vt 0.251603 0.676566
vt 0.224003 0.676566
vt 0.279202 0.300626
vt 0.279202 0.676566
vt 0.306802 0.300626
vt 0.306802 0.676566
vt 0.334402 0.300626
vt 0.334402 0.676566
vt 0.362001 0.300626
vt 0.362001 0.676566
vt 0.389601 0.300626
vt 0.389601 0.676566
vt 0.417201 0.300626
vt 0.417201 0.676566
vt 0.444800 0.300626
vt 0.444800 0.676566
vt 0.472400 0.300626
vt 0.472400 0.676566
vt 0.500000 0.300626
vt 0.500000 0.676566
vt 0.527600 0.300626
vt 0.527600 0.676566
vt 0.555199 0.300626
vt 0.555199 0.676566
vt 0.582799 0.300626
vt 0.582799 0.676566
vt 0.610399 0.300626
vt 0.610399 0.676566
vt 0.637998 0.300626
vt 0.637998 0.676566
vt 0.665598 0.300626
vt 0.665598 0.676566
vt 0.693198 0.300626
vt 0.693198 0.676566
vt 0.720797 0.300626
vt 0.720797 0.676566
vt 0.748397 0.300626
vt 0.748397 0.676566
vt 0.775997 0.300626
vt 0.775997 0.676566
vt 0.607682 0.064098
vt 0.626587 0.101202
vt 0.500000 0.137009
vt 0.578235 0.034651
vt 0.541131 0.015746
vt 0.500000 0.009231
vt 0.458869 0.015746
vt 0.421765 0.034651
vt 0.392318 0.064098
vt 0.373413 0.101202
vt 0.366898 0.142333
vt 0.373413 0.183464
vt 0.392318 0.220568
vt 0.421765 0.250015
vt 0.458869 0.268920
vt 0.500000 0.275435
vt 0.541131 0.268920
vt 0.578235 0.250015
vt 0.607682 0.220568
vt 0.626587 0.183464
vt 0.633102 0.142333
vt 0.624894 0.870414
vt 0.606241 0.907022
vt 0.500000 0.824580
vt 0.577189 0.936074
vt 0.540580 0.954727
vt 0.500000 0.961154
vt 0.459420 0.954727
vt 0.422811 0.936074
vt 0.393759 0.907022
vt 0.375106 0.870414
vt 0.368679 0.829833
vt 0.375106 0.789253
vt 0.393759 0.752644
vt 0.422811 0.723592
vt 0.459419 0.704939
vt 0.500000 0.698512
vt 0.540581 0.704939
vt 0.577189 0.723592
vt 0.606241 0.752644
vt 0.624894 0.789253
vt 0.631321 0.829833
vn 0.000000 0.951057 0.309016
vn 0.000000 0.809017 0.587785
vn 0.000000 0.951057 0.309016
vn 0.000000 0.809017 0.587785
vn 0.000000 0.587785 0.809017
vn 0.000000 0.587785 0.809017
vn 0.000000 0.309017 0.951057
vn 0.000000 0.309017 0.951057
vn 0.000000 -0.000000 1.000000
vn 0.000000 0.000000 1.000000
vn 0.000000 -0.309017 0.951057
vn 0.000000 -0.309017 0.951057
vn 0.000000 -0.587785 0.809017
vn 0.000000 -0.587785 0.809017
vn 0.000000 -0.809017 0.587785
vn 0.000000 -0.809017 0.587785
vn 0.000000 -0.951057 0.309017
vn 0.000000 -0.951057 0.309017
vn 0.000000 -1.000000 0.000000
vn 0.000000 -1.000000 -0.000000
vn 0.000000 -0.951057 -0.309017
vn 0.000000 -0.951056 -0.309017
vn 0.000000 -0.809017 -0.587785
vn 0.000000 -0.809017 -0.587785
vn 0.000000 -0.587785 -0.809017
vn 0.000000 -0.587785 -0.809017
vn 0.000000 -0.309017 -0.951057
vn 0.000000 -0.309017 -0.951057
vn 0.000000 0.000000 -1.000000
vn 0.000000 0.000000 -1.000000
vn 0.000000 0.309017 -0.951057
vn 0.000000 0.309017 -0.951057
vn 0.000000 0.587785 -0.809017
vn 0.000000 0.587785 -0.809017
vn 0.000000 0.809017 -0.587785
vn 0.000000 0.809017 -0.587785
vn 0.000000 0.951057 -0.309017
vn 0.000000 0.951057 -0.309017
vn 0.000000 1.000000 -0.000001
vn 0.000000 1.000000 -0.000001
vn -1.000000 -0.000000 0.000000
vn -1.000000 -0.000000 0.000000
vn -1.000000 -0.000000 0.000000
vn -1.000000 0.000000 0.000000
vn -1.000000 -0.000000 0.000000
vn -1.000000 0.000000 0.000000
vn -1.000000 0.000000 0.000000
vn -1.000000 0.000000 0.000000
vn -1.000000 0.000000 0.000000
vn -1.000000 0.000000 0.000000
vn -1.000000 0.000000 0.000000
vn -1.000000 -0.000000 0.000000
vn -1.000000 -0.000000 0.000000
vn -1.000000 -0.000000 0.000000
vn -1.000000 0.000000 0.000000
vn -1.000000 0.000000 0.000000
vn -1.000000 0.000000 0.000000
vn -1.000000 0.000000 0.000000
vn -1.000000 0.000000 0.000000
vn -1.000000 0.000000 0.000000
vn -1.000000 0.000000 0.000000
vn 1.000000 -0.000000 0.000000
vn 1.000000 -0.000000 0.000000
vn 1.000000 0.000000 0.000000
vn 1.000000 0.000000 0.000000
vn 1.000000 -0.000000 0.000000
vn 1.000000 0.000000 0.000000
vn 1.000000 0.000000 0.000000
vn 1.000000 0.000000 0.000000
vn 1.000000 0.000000 0.000000
vn 1.000000 0.000000 0.000000
vn 1.000000 0.000000 0.000000
vn 1.000000 -0.000000 0.000000
vn 1.000000 -0.000000 0.000000
vn 1.000000 0.000000 0.000000
vn 1.000000 0.000000 0.000000
vn 1.000000 0.000000 0.000000
vn 1.000000 0.000000 0.000000
vn 1.000000 0.000000 0.000000
vn 1.000000 0.000000 0.000000
vn 1.000000 0.000000 0.000000
vn 1.000000 0.000000 0.000000
f 1/1/1 2/2/2 21/4/3
f 21/4/3 2/2/2 22/3/4
f 2/2/2 3/5/5 22/3/4
f 22/3/4 3/5/5 23/6/6
f 3/5/5 4/7/7 23/6/6
f 23/6/6 4/7/7 24/8/8
f 4/7/7 5/9/9 24/8/8
f 24/8/8 5/9/9 25/10/10
f 5/9/9 6/11/11 25/10/10
f 25/10/10 6/11/11 26/12/12
f 6/11/11 7/13/13 26/12/12
f 26/12/12 7/13/13 27/14/14
f 7/13/13 8/15/15 27/14/14
f 27/14/14 8/15/15 28/16/16
f 8/15/15 9/17/17 28/16/16
f 28/16/16 9/17/17 29/18/18
f 9/17/17 10/19/19 29/18/18
f 29/18/18 10/19/19 30/20/20
f 10/19/19 11/21/21 30/20/20
f 30/20/20 11/21/21 31/22/22
f 11/21/21 12/23/23 31/22/22
f 31/22/22 12/23/23 32/24/24
f 12/23/23 13/25/25 32/24/24
f 32/24/24 13/25/25 33/26/26
f 13/25/25 14/27/27 33/26/26
f 33/26/26 14/27/27 34/28/28
f 14/27/27 15/29/29 34/28/28
f 34/28/28 15/29/29 35/30/30
f 15/29/29 16/31/31 35/30/30
f 35/30/30 16/31/31 36/32/32
f 16/31/31 17/33/33 36/32/32
f 36/32/32 17/33/33 37/34/34
f 17/33/33 18/35/35 37/34/34
f 37/34/34 18/35/35 38/36/36
f 18/35/35 19/37/37 38/36/36
f 38/36/36 19/37/37 39/38/38
f 19/37/37 20/39/39 39/38/38
f 39/38/38 20/39/39 40/40/40
f 20/39/39 1/41/1 40/40/40
f 40/40/40 1/41/1 21/42/3
f 2/43/41 1/44/42 41/45/43
f 3/46/44 2/43/41 41/45/43
f 4/47/45 3/46/44 41/45/43
f 5/48/46 4/47/45 41/45/43
f 6/49/47 5/48/46 41/45/43
f 7/50/48 6/49/47 41/45/43
f 8/51/49 7/50/48 41/45/43
f 9/52/50 8/51/49 41/45/43
f 10/53/51 9/52/50 41/45/43
f 11/54/52 10/53/51 41/45/43
f 12/55/53 11/54/52 41/45/43
f 13/56/54 12/55/53 41/45/43
f 14/57/55 13/56/54 41/45/43
f 15/58/56 14/57/55 41/45/43
f 16/59/57 15/58/56 41/45/43
f 17/60/58 16/59/57 41/45/43
f 18/61/59 17/60/58 41/45/43
f 19/62/60 18/61/59 41/45/43
f 20/63/61 19/62/60 41/45/43
f 1/44/42 20/63/61 41/45/43
f 21/64/62 22/65/63 42/66/64
f 22/65/63 23/67/65 42/66/64
f 23/67/65 24/68/66 42/66/64
f 24/68/66 25/69/67 42/66/64
f 25/69/67 26/70/68 42/66/64
f 26/70/68 27/71/69 42/66/64
f 27/71/69 28/72/70 42/66/64
f 28/72/70 29/73/71 42/66/64
f 29/73/71 30/74/72 42/66/64
f 30/74/72 31/75/73 42/66/64
f 31/75/73 32/76/74 42/66/64
f 32/76/74 33/77/75 42/66/64
f 33/77/75 34/78/76 42/66/64
f 34/78/76 35/79/77 42/66/64
f 35/79/77 36/80/78 42/66/64
f 36/80/78 37/81/79 42/66/64
f 37/81/79 38/82/80 42/66/64
f 38/82/80 39/83/81 42/66/64
f 39/83/81 40/84/82 42/66/64
f 40/84/82 21/64/62 42/66/64
