# This file uses centimeters as units for non-parametric coordinates.

mtllib shield2.mtl
g default
v 0.239639 -1.080571 -0.951057
v -0.039129 -1.080571 -0.809017
v -0.260361 -1.080571 -0.587785
v -0.402400 -1.080571 -0.309017
v -0.451344 -1.080571 0.000000
v -0.402400 -1.080571 0.309017
v -0.260361 -1.080571 0.587785
v -0.039129 -1.080571 0.809017
v 0.239639 -1.080571 0.951057
v 0.239639 1.080571 -0.951057
v -0.039129 1.080571 -0.809017
v -0.260361 1.080571 -0.587785
v -0.402400 1.080571 -0.309017
v -0.451344 1.080571 0.000000
v -0.402400 1.080571 0.309017
v -0.260361 1.080571 0.587785
v -0.039129 1.080571 0.809017
v 0.239639 1.080571 0.951057
v 0.537239 -1.080571 -0.951057
v 0.258471 -1.080571 -0.809017
v 0.037239 -1.080571 -0.587785
v -0.104801 -1.080571 -0.309017
v -0.153744 -1.080571 0.000000
v -0.104801 -1.080571 0.309017
v 0.037239 -1.080571 0.587785
v 0.258471 -1.080571 0.809017
v 0.537239 -1.080571 0.951057
v 0.537239 1.080571 -0.951057
v 0.258471 1.080571 -0.809017
v 0.037239 1.080571 -0.587785
v -0.104801 1.080571 -0.309017
v -0.153744 1.080571 0.000000
v -0.104801 1.080571 0.309017
v 0.037239 1.080571 0.587785
v 0.258471 1.080571 0.809017
v 0.537239 1.080571 0.951057
vt 0.281119 0.074001
vt 0.376832 0.074001
vt 0.376832 0.760687
vt 0.281119 0.760687
vt 0.482931 0.074001
vt 0.482931 0.760687
vt 0.205160 0.074001
vt 0.205160 0.760687
vt 0.589029 0.074001
vt 0.589029 0.760687
vt 0.684743 0.074001
vt 0.684743 0.760687
vt 0.760701 0.074001
vt 0.760701 0.760687
vt 0.184813 0.890954
vt 0.184813 0.976218
vt 0.172928 0.976218
vt 0.172928 0.890954
vt 0.194244 0.890954
vt 0.194244 0.976218
vt 0.159754 0.976218
vt 0.159754 0.890954
vt 0.146581 0.976218
vt 0.146581 0.890954
vt 0.134696 0.976218
vt 0.134696 0.890954
vt 0.125265 0.976218
vt 0.125265 0.890954
vt 0.111109 0.890954
vt 0.099225 0.897010
vt 0.098422 0.890954
vt 0.086538 0.897010
vt 0.089793 0.906441
vt 0.077106 0.906441
vt 0.083738 0.918326
vt 0.071051 0.918326
vt 0.081651 0.931500
vt 0.068964 0.931500
vt 0.071051 0.944674
vt 0.083738 0.944674
vt 0.077106 0.956558
vt 0.089793 0.956558
vt 0.086538 0.965990
vt 0.099225 0.965990
vt 0.098422 0.972045
vt 0.111109 0.972045
vt 0.067829 0.890954
vt 0.055944 0.897010
vt 0.055141 0.890954
vt 0.043257 0.897010
vt 0.046513 0.906441
vt 0.033826 0.906441
vt 0.040457 0.918326
vt 0.027770 0.918326
vt 0.038371 0.931500
vt 0.025684 0.931500
vt 0.027770 0.944674
vt 0.040457 0.944674
vt 0.033826 0.956558
vt 0.046513 0.956558
vt 0.043257 0.965990
vt 0.055944 0.965990
vt 0.055141 0.972045
vt 0.067829 0.972045
vt 0.107835 0.072052
vt 0.204456 0.074001
vt 0.204456 0.760687
vt 0.108743 0.760687
vt 0.005657 0.758738
vt 0.005657 0.072052
vt 0.765813 0.074001
vt 0.861527 0.074001
vt 0.861527 0.760687
vt 0.765813 0.760687
vt 0.969553 0.074001
vt 0.969553 0.760687
vt 0.183422 0.892249
vt 0.183422 0.977513
vt 0.171537 0.977513
vt 0.171537 0.892249
vt 0.112245 0.976218
vt 0.112245 0.890954
vt 0.124129 0.890954
vt 0.124129 0.976218
vt 0.108743 0.074001
vt 0.107836 0.758738
vn -0.453991 0.000000 -0.891006
vn -0.587785 0.000000 -0.809017
vn -0.587785 0.000000 -0.809017
vn -0.453991 0.000000 -0.891006
vn -0.809017 0.000000 -0.587785
vn -0.809017 0.000000 -0.587785
vn -0.951057 0.000000 -0.309017
vn -0.951057 0.000000 -0.309017
vn -1.000000 0.000000 0.000000
vn -1.000000 0.000000 0.000000
vn -0.951057 0.000000 0.309017
vn -0.951057 0.000000 0.309017
vn -0.809017 0.000000 0.587785
vn -0.809017 0.000000 0.587785
vn -0.587785 0.000000 0.809017
vn -0.587785 0.000000 0.809017
vn -0.453990 0.000000 0.891007
vn -0.453990 0.000000 0.891007
vn 0.453991 0.000000 0.891006
vn 0.453991 0.000000 0.891006
vn 0.587786 0.000000 0.809017
vn 0.587786 0.000000 0.809017
vn 0.809017 0.000000 0.587785
vn 0.809017 0.000000 0.587785
vn 0.951057 0.000000 0.309017
vn 0.951057 0.000000 0.309017
vn 1.000000 0.000000 0.000000
vn 1.000000 0.000000 0.000000
vn 0.951057 0.000000 -0.309017
vn 0.951057 0.000000 -0.309017
vn 0.809017 0.000000 -0.587785
vn 0.809017 0.000000 -0.587785
vn 0.587785 0.000000 -0.809017
vn 0.587785 0.000000 -0.809017
vn 0.453990 0.000000 -0.891007
vn 0.453990 0.000000 -0.891007
vn 0.000000 0.000000 -1.000000
vn 0.000000 0.000000 -1.000000
vn 0.000000 0.000000 -1.000000
vn 0.000000 0.000000 -1.000000
vn 0.000000 0.000000 1.000000
vn 0.000000 0.000000 1.000000
vn 0.000000 0.000000 1.000000
vn 0.000000 0.000000 1.000000
vn 0.000000 1.000000 0.000000
vn 0.000000 1.000000 0.000000
vn 0.000000 1.000000 0.000000
vn 0.000000 1.000000 0.000000
vn 0.000000 1.000000 0.000000
vn 0.000000 1.000000 0.000000
vn 0.000000 1.000000 0.000000
vn 0.000000 1.000000 0.000000
vn 0.000000 1.000000 0.000000
vn 0.000000 1.000000 0.000000
vn 0.000000 1.000000 0.000000
vn 0.000000 1.000000 0.000000
vn 0.000000 1.000000 0.000000
vn 0.000000 1.000000 0.000000
vn 0.000000 1.000000 0.000000
vn 0.000000 1.000000 0.000000
vn 0.000000 1.000000 0.000000
vn 0.000000 1.000000 0.000000
vn 0.000000 -1.000000 0.000000
vn 0.000000 -1.000000 0.000000
vn 0.000000 -1.000000 0.000000
vn 0.000000 -1.000000 0.000000
vn 0.000000 -1.000000 0.000000
vn 0.000000 -1.000000 0.000000
vn 0.000000 -1.000000 0.000000
vn 0.000000 -1.000000 0.000000
vn 0.000000 -1.000000 0.000000
vn 0.000000 -1.000000 0.000000
vn 0.000000 -1.000000 0.000000
vn 0.000000 -1.000000 0.000000
vn 0.000000 -1.000000 0.000000
vn 0.000000 -1.000000 0.000000
vn 0.000000 -1.000000 0.000000
vn 0.000000 -1.000000 0.000000
vn 0.000000 -1.000000 0.000000
vn 0.000000 -1.000000 0.000000
s 1
g pCylinder3
usemtl initialShadingGroup
f 1/85/1 2/66/2 11/67/3 10/68/4
f 2/7/2 3/1/5 12/4/6 11/8/3
f 3/1/5 4/2/7 13/3/8 12/4/6
f 4/2/7 5/5/9 14/6/10 13/3/8
f 5/5/9 6/9/11 15/10/12 14/6/10
f 6/9/11 7/11/13 16/12/14 15/10/12
f 7/11/13 8/13/15 17/14/16 16/12/14
f 8/71/15 9/72/17 18/73/18 17/74/16
s 2
f 19/77/19 28/78/20 29/79/21 20/80/22
f 20/19/22 29/20/21 30/16/23 21/15/24
f 21/15/24 30/16/23 31/17/25 22/18/26
f 22/18/26 31/17/25 32/21/27 23/22/28
f 23/22/28 32/21/27 33/23/29 24/24/30
f 24/24/30 33/23/29 34/25/31 25/26/32
f 25/26/32 34/25/31 35/27/33 26/28/34
f 26/81/34 35/82/33 36/83/35 27/84/36
s off
f 1/65/37 10/86/38 28/69/39 19/70/40
f 18/73/41 9/72/42 27/75/43 36/76/44
s 3
f 36/29/45 35/30/46 18/31/47
f 28/46/48 10/45/49 29/44/50
f 18/31/47 35/30/46 17/32/51
f 35/30/46 34/33/52 17/32/51
f 17/32/51 34/33/52 16/34/53
f 34/33/52 33/35/54 16/34/53
f 16/34/53 33/35/54 15/36/55
f 10/45/49 11/43/56 29/44/50
f 29/44/50 11/43/56 30/42/57
f 11/43/56 12/41/58 30/42/57
f 30/42/57 12/41/58 31/40/59
f 12/41/58 13/39/60 31/40/59
f 33/35/54 32/37/61 15/36/55
f 15/36/55 32/37/61 14/38/62
f 14/38/62 32/37/61 13/39/60
f 13/39/60 32/37/61 31/40/59
s 5
f 19/47/63 20/48/64 1/49/65
f 27/64/66 9/63/67 26/62/68
f 1/49/65 20/48/64 2/50/69
f 20/48/64 21/51/70 2/50/69
f 2/50/69 21/51/70 3/52/71
f 21/51/70 22/53/72 3/52/71
f 3/52/71 22/53/72 4/54/73
f 9/63/67 8/61/74 26/62/68
f 26/62/68 8/61/74 25/60/75
f 8/61/74 7/59/76 25/60/75
f 25/60/75 7/59/76 24/58/77
f 7/59/76 6/57/78 24/58/77
f 22/53/72 23/55/79 4/54/73
f 4/54/73 23/55/79 5/56/80
f 24/58/77 6/57/78 23/55/79
f 23/55/79 6/57/78 5/56/80
