# This file uses centimeters as units for non-parametric coordinates.

mtllib shop stand.mtl
g default
v -0.500000 -0.500000 2.100034
v -0.300000 -0.500000 2.100034
v -0.100000 -0.500000 2.100034
v 0.100000 -0.500000 2.100034
v 0.300000 -0.500000 2.100034
v 0.500000 -0.500000 2.100034
v -0.500000 0.500000 2.100034
v -0.300000 0.500000 2.100034
v -0.100000 0.500000 2.100034
v 0.100000 0.500000 2.100034
v 0.300000 0.500000 2.100034
v 0.500000 0.500000 2.100034
v -0.500000 0.500000 -2.100034
v -0.300000 0.500000 -2.100034
v -0.100000 0.500000 -2.100034
v 0.100000 0.500000 -2.100034
v 0.300000 0.500000 -2.100034
v 0.500000 0.500000 -2.100034
v -0.500000 -0.500000 -2.100034
v -0.300000 -0.500000 -2.100034
v -0.100000 -0.500000 -2.100034
v 0.100000 -0.500000 -2.100034
v 0.300000 -0.500000 -2.100034
v 0.500000 -0.500000 -2.100034
v 0.100000 0.500000 1.996448
v -0.100000 0.500000 1.996448
v -0.300000 0.500000 1.996448
v -0.500000 0.500000 1.996448
v -0.500000 -0.500000 1.996448
v -0.300000 -0.500000 1.996448
v -0.100000 -0.500000 1.996448
v 0.100000 -0.500000 1.996448
v 0.300000 -0.500000 1.996448
v 0.500000 -0.500000 1.996448
v 0.500000 0.500000 1.996448
v 0.300000 0.500000 1.996448
v 0.100000 0.500000 1.842013
v -0.100000 0.500000 1.842013
v -0.300000 0.500000 1.842013
v -0.500000 0.500000 1.842013
v -0.500000 -0.500000 1.842013
v -0.300000 -0.500000 1.842013
v -0.100000 -0.500000 1.842013
v 0.100000 -0.500000 1.842013
v 0.300000 -0.500000 1.842013
v 0.500000 -0.500000 1.842013
v 0.500000 0.500000 1.842013
v 0.300000 0.500000 1.842013
v 0.100000 0.500000 -1.961048
v -0.100000 0.500000 -1.961048
v -0.300000 0.500000 -1.961048
v -0.500000 0.500000 -1.961048
v -0.500000 -0.500000 -1.961048
v -0.300000 -0.500000 -1.961048
v -0.100000 -0.500000 -1.961048
v 0.100000 -0.500000 -1.961048
v 0.300000 -0.500000 -1.961048
v 0.500000 -0.500000 -1.961048
v 0.500000 0.500000 -1.961048
v 0.300000 0.500000 -1.961048
v 0.100000 0.500000 -1.782641
v -0.100000 0.500000 -1.782641
v -0.300000 0.500000 -1.782641
v -0.500000 0.500000 -1.782641
v -0.500000 -0.500000 -1.782641
v -0.300000 -0.500000 -1.782641
v -0.100000 -0.500000 -1.782641
v 0.100000 -0.500000 -1.782641
v 0.300000 -0.500000 -1.782641
v 0.500000 -0.500000 -1.782641
v 0.500000 0.500000 -1.782641
v 0.300000 0.500000 -1.782641
v 0.100000 3.054345 1.996448
v -0.100000 3.054345 1.996448
v 0.100000 3.054345 1.842013
v -0.100000 3.054345 1.842013
v 0.100000 3.054345 -1.782641
v -0.100000 3.054345 -1.782641
v 0.100000 3.054345 -1.961048
v -0.100000 3.054345 -1.961048
v -0.100000 2.839067 1.996448
v -0.100000 2.839067 1.842013
v 0.100000 2.839067 1.842013
v 0.100000 2.839067 1.996448
v 0.100000 2.851442 -1.961048
v 0.100000 2.851442 -1.782641
v -0.100000 2.851442 -1.782641
v -0.100000 2.851442 -1.961048
v 0.100000 2.179551 1.842013
v 0.100000 2.179551 1.996448
v -0.100000 2.179551 1.996448
v -0.100000 2.179551 1.842013
v 0.100000 2.173811 -1.961048
v 0.100000 2.173811 -1.782641
v -0.100000 2.173811 -1.782641
v -0.100000 2.173811 -1.961048
vt 0.089988 0.777181
vt 0.089988 0.771828
vt 0.307015 0.777181
vt 0.307015 0.771828
vt 0.307015 0.763848
vt 0.089988 0.763848
vt 0.307015 0.576554
vt 0.089988 0.576554
vt 0.307015 0.567336
vt 0.089988 0.567336
vt 0.307015 0.560154
vt 0.089988 0.560154
vt 0.239079 0.780981
vt 0.244432 0.780981
vt 0.239079 0.998008
vt 0.244432 0.998008
vt 0.231099 0.998008
vt 0.231099 0.780981
vt 0.043805 0.998008
vt 0.043805 0.780981
vt 0.034586 0.998008
vt 0.034586 0.780981
vt 0.027405 0.998008
vt 0.027405 0.780981
vt 0.077483 0.001992
vt 0.083400 0.001992
vt 0.077483 0.366500
vt 0.083400 0.366500
vt 0.077483 0.509633
vt 0.083400 0.509633
vt 0.274530 0.365254
vt 0.077483 0.556354
vt 0.274530 0.512319
vt 0.083400 0.556354
vt 0.278767 0.365254
vt 0.278767 0.001992
vt 0.278767 0.512319
vt 0.274530 0.001992
vt 0.274530 0.556354
vt 0.278767 0.556354
vt 0.485559 0.001992
vt 0.490816 0.001992
vt 0.476301 0.419519
vt 0.490816 0.366500
vt 0.476301 0.481444
vt 0.490816 0.509633
vt 0.299630 0.418980
vt 0.485559 0.556354
vt 0.299630 0.482606
vt 0.490816 0.556354
vt 0.290666 0.512319
vt 0.290666 0.365254
vt 0.290666 0.556354
vt 0.296961 0.001992
vt 0.296961 0.556354
vt 0.290666 0.001992
vt 0.758592 0.222819
vt 0.801997 0.222819
vt 0.758592 0.228172
vt 0.801997 0.228172
vt 0.845403 0.222819
vt 0.758592 0.236152
vt 0.845403 0.228172
vt 0.801997 0.236152
vt 0.888808 0.222819
vt 0.758592 0.423446
vt 0.888808 0.228172
vt 0.845403 0.236152
vt 0.801997 0.423446
vt 0.932214 0.222819
vt 0.758592 0.432664
vt 0.932214 0.228172
vt 0.845403 0.423446
vt 0.801997 0.432664
vt 0.975619 0.222819
vt 0.888808 0.236152
vt 0.758592 0.439846
vt 0.975619 0.228172
vt 0.932214 0.236152
vt 0.888808 0.423446
vt 0.845403 0.432664
vt 0.801997 0.439846
vt 0.975619 0.236152
vt 0.932214 0.423446
vt 0.845403 0.439846
vt 0.888808 0.432664
vt 0.975619 0.423446
vt 0.932214 0.432664
vt 0.888808 0.439846
vt 0.975619 0.432664
vt 0.932214 0.439846
vt 0.975619 0.439846
vt 0.312856 0.771828
vt 0.356262 0.771828
vt 0.312856 0.777181
vt 0.356262 0.763848
vt 0.356262 0.777181
vt 0.312856 0.763848
vt 0.399667 0.763848
vt 0.399667 0.771828
vt 0.356262 0.576554
vt 0.399667 0.576554
vt 0.399667 0.777181
vt 0.312856 0.576554
vt 0.443072 0.576554
vt 0.443072 0.763848
vt 0.443072 0.771828
vt 0.356262 0.567336
vt 0.399667 0.567336
vt 0.443072 0.567336
vt 0.443072 0.777181
vt 0.312856 0.567336
vt 0.486478 0.567336
vt 0.486478 0.576554
vt 0.486478 0.763848
vt 0.486478 0.771828
vt 0.356262 0.560154
vt 0.399667 0.560154
vt 0.443072 0.560154
vt 0.486478 0.560154
vt 0.486478 0.777181
vt 0.312856 0.560154
vt 0.529883 0.560154
vt 0.529883 0.567336
vt 0.529883 0.576554
vt 0.529883 0.763848
vt 0.529883 0.771828
vt 0.529883 0.777181
vt 0.453324 0.818013
vt 0.453324 0.787355
vt 0.459617 0.818013
vt 0.459617 0.787355
vt 0.468840 0.818523
vt 0.468840 0.786845
vt 0.475027 0.818523
vt 0.475027 0.786845
vt 0.295501 0.968275
vt 0.252096 0.968275
vt 0.295501 0.780981
vt 0.252096 0.780981
vt 0.302192 0.780981
vt 0.345597 0.780981
vt 0.302192 0.968275
vt 0.345597 0.968275
vt 0.651010 0.001992
vt 0.694416 0.001992
vt 0.651010 0.219019
vt 0.694416 0.219019
vt 0.737821 0.001992
vt 0.737821 0.219019
vt 0.781226 0.001992
vt 0.781226 0.219019
vt 0.824632 0.001992
vt 0.824632 0.219019
vt 0.868037 0.001992
vt 0.868037 0.219019
vt 0.535724 0.560154
vt 0.579129 0.560154
vt 0.535724 0.777181
vt 0.579129 0.777181
vt 0.622535 0.560154
vt 0.622535 0.777181
vt 0.665940 0.560154
vt 0.665940 0.777181
vt 0.709346 0.560154
vt 0.709346 0.777181
vt 0.752751 0.560154
vt 0.752751 0.777181
vt 0.034288 0.041066
vt 0.063926 0.041066
vt 0.034288 0.354190
vt 0.063926 0.354190
vt 0.034288 0.477145
vt 0.063926 0.477145
vt 0.034288 0.517280
vt 0.063926 0.517280
vt 0.591419 0.342949
vt 0.553622 0.342949
vt 0.591419 0.025543
vt 0.553622 0.025543
vt 0.605248 0.021195
vt 0.639985 0.021195
vt 0.605248 0.346051
vt 0.639985 0.346051
vt 0.537125 0.494487
vt 0.507723 0.494487
vt 0.537125 0.212305
vt 0.507723 0.212305
vt 0.537125 0.098066
vt 0.507723 0.098066
vt 0.537125 0.063859
vt 0.507723 0.063859
vt 0.392124 0.822213
vt 0.355857 0.822213
vt 0.392124 0.786469
vt 0.355857 0.786469
vt 0.406719 0.786154
vt 0.441456 0.786154
vt 0.406719 0.819843
vt 0.441456 0.819843
vt 0.485559 0.509633
vt 0.476301 0.481444
vt 0.296961 0.365254
vt 0.299630 0.418980
vt 0.296961 0.512319
vt 0.485559 0.366500
vn 0.000000 0.000000 1.000000
vn 0.000000 0.000000 1.000000
vn 0.000000 0.000000 1.000000
vn 0.000000 0.000000 1.000000
vn 0.000000 0.000000 1.000000
vn 0.000000 0.000000 1.000000
vn 0.000000 0.000000 1.000000
vn 0.000000 0.000000 1.000000
vn 0.000000 0.000000 1.000000
vn 0.000000 0.000000 1.000000
vn 0.000000 0.000000 1.000000
vn 0.000000 0.000000 1.000000
vn 0.000000 1.000000 0.000000
vn 0.000000 1.000000 0.000000
vn 0.000000 1.000000 0.000000
vn 0.000000 1.000000 0.000000
vn 0.000000 1.000000 -0.000000
vn 0.000000 1.000000 -0.000000
vn 0.000000 1.000000 -0.000000
vn 0.000000 1.000000 -0.000000
vn 0.000000 1.000000 -0.000000
vn 0.000000 1.000000 0.000000
vn 0.000000 1.000000 0.000000
vn 0.000000 1.000000 0.000000
vn 0.000000 0.000000 -1.000000
vn 0.000000 0.000000 -1.000000
vn 0.000000 0.000000 -1.000000
vn 0.000000 0.000000 -1.000000
vn 0.000000 0.000000 -1.000000
vn 0.000000 0.000000 -1.000000
vn 0.000000 0.000000 -1.000000
vn 0.000000 0.000000 -1.000000
vn 0.000000 0.000000 -1.000000
vn 0.000000 0.000000 -1.000000
vn 0.000000 0.000000 -1.000000
vn 0.000000 0.000000 -1.000000
vn 0.000000 -1.000000 0.000000
vn 0.000000 -1.000000 0.000000
vn 0.000000 -1.000000 0.000000
vn 0.000000 -1.000000 0.000000
vn 0.000000 -1.000000 0.000000
vn 0.000000 -1.000000 0.000000
vn 0.000000 -1.000000 0.000000
vn 0.000000 -1.000000 0.000000
vn 0.000000 -1.000000 0.000000
vn 0.000000 -1.000000 0.000000
vn 0.000000 -1.000000 0.000000
vn 0.000000 -1.000000 0.000000
vn 1.000000 0.000000 0.000000
vn 1.000000 0.000000 0.000000
vn 1.000000 0.000000 0.000000
vn 1.000000 0.000000 0.000000
vn -1.000000 0.000000 0.000000
vn -1.000000 0.000000 0.000000
vn -1.000000 0.000000 0.000000
vn -1.000000 0.000000 0.000000
vn 0.000000 1.000000 0.000000
vn 0.000000 1.000000 0.000000
vn 0.000000 1.000000 0.000000
vn 0.000000 1.000000 0.000000
vn 0.000000 1.000000 0.000000
vn 0.000000 1.000000 -0.000000
vn 0.000000 1.000000 0.000000
vn -1.000000 0.000000 0.000000
vn -1.000000 0.000000 0.000000
vn 0.000000 -1.000000 0.000000
vn 0.000000 -1.000000 0.000000
vn 0.000000 -1.000000 0.000000
vn 0.000000 -1.000000 0.000000
vn 0.000000 -1.000000 0.000000
vn 0.000000 -1.000000 0.000000
vn 1.000000 0.000000 0.000000
vn 1.000000 0.000000 0.000000
vn 0.000000 1.000000 0.000000
vn 0.000000 1.000000 0.000000
vn 0.000000 1.000000 0.000000
vn 0.000000 1.000000 -0.000000
vn 0.000000 1.000000 0.000000
vn 0.000000 1.000000 -0.000000
vn 0.000000 1.000000 0.000000
vn -1.000000 0.000000 0.000000
vn -1.000000 0.000000 0.000000
vn 0.000000 -1.000000 0.000000
vn 0.000000 -1.000000 0.000000
vn 0.000000 -1.000000 0.000000
vn 0.000000 -1.000000 0.000000
vn 0.000000 -1.000000 0.000000
vn 0.000000 -1.000000 0.000000
vn 1.000000 0.000000 0.000000
vn 1.000000 0.000000 0.000000
vn 0.000000 1.000000 0.000000
vn 0.000000 1.000000 0.000000
vn 0.000000 1.000000 0.000000
vn 0.000000 1.000000 0.000000
vn 0.000000 1.000000 0.000000
vn 0.000000 1.000000 0.000000
vn 0.000000 1.000000 0.000000
vn 0.000000 1.000000 0.000000
vn 0.000000 1.000000 0.000000
vn 0.000000 1.000000 0.000000
vn -1.000000 0.000000 0.000000
vn -1.000000 0.000000 0.000000
vn -1.000000 0.000000 0.000000
vn -1.000000 0.000000 0.000000
vn 0.000000 -1.000000 0.000000
vn 0.000000 -1.000000 0.000000
vn 0.000000 -1.000000 0.000000
vn 0.000000 -1.000000 0.000000
vn 0.000000 -1.000000 0.000000
vn 0.000000 -1.000000 0.000000
vn 0.000000 -1.000000 0.000000
vn 0.000000 -1.000000 0.000000
vn 0.000000 -1.000000 0.000000
vn 0.000000 -1.000000 0.000000
vn 0.000000 -1.000000 0.000000
vn 0.000000 -1.000000 0.000000
vn 1.000000 0.000000 0.000000
vn 1.000000 0.000000 0.000000
vn 1.000000 0.000000 0.000000
vn 1.000000 0.000000 0.000000
vn 0.000000 1.000000 0.000000
vn 0.000000 1.000000 0.000000
vn 0.000000 1.000000 0.000000
vn 0.000000 1.000000 0.000000
vn 0.000000 1.000000 0.000000
vn 0.000000 1.000000 0.000000
vn 0.000000 1.000000 0.000000
vn 0.000000 1.000000 0.000000
vn 0.000000 0.000000 1.000000
vn 0.000000 0.000000 1.000000
vn 0.000000 0.000000 1.000000
vn 0.000000 0.000000 1.000000
vn 1.000000 0.000000 0.000000
vn 1.000000 0.000000 0.000000
vn 1.000000 0.000000 0.000000
vn 1.000000 0.000000 0.000000
vn 0.000000 0.000000 -1.000000
vn 0.000000 0.000000 -1.000000
vn 0.000000 0.000000 -1.000000
vn 0.000000 0.000000 -1.000000
vn -1.000000 0.000000 0.000000
vn -1.000000 0.000000 0.000000
vn -1.000000 0.000000 0.000000
vn -1.000000 0.000000 0.000000
vn 0.000000 0.000000 1.000000
vn 0.000000 0.000000 1.000000
vn 0.000000 0.000000 1.000000
vn 0.000000 0.000000 1.000000
vn 1.000000 0.000000 0.000000
vn 1.000000 0.000000 0.000000
vn 1.000000 0.000000 0.000000
vn 1.000000 0.000000 0.000000
vn 0.000000 0.000000 -1.000000
vn 0.000000 0.000000 -1.000000
vn 0.000000 0.000000 -1.000000
vn 0.000000 -0.000000 -1.000000
vn -1.000000 -0.000000 0.000000
vn -1.000000 -0.000000 0.000000
vn -1.000000 0.000000 0.000000
vn -1.000000 0.000000 0.000000
vn -1.000000 0.000000 0.000000
vn -1.000000 0.000000 0.000000
vn -1.000000 0.000000 0.000000
vn -1.000000 0.000000 0.000000
vn 0.000000 0.000000 -1.000000
vn 0.000000 0.000000 -1.000000
vn 0.000000 0.000000 -1.000000
vn 0.000000 0.000000 -1.000000
vn 1.000000 0.000000 0.000000
vn 1.000000 0.000000 0.000000
vn 1.000000 0.000000 0.000000
vn 1.000000 0.000000 0.000000
vn 0.000000 0.000000 1.000000
vn 0.000000 0.000000 1.000000
vn 0.000000 0.000000 1.000000
vn 0.000000 0.000000 1.000000
vn 1.000000 0.000000 0.000000
vn 1.000000 0.000000 0.000000
vn 1.000000 0.000000 0.000000
vn 1.000000 0.000000 0.000000
vn 0.000000 0.000000 1.000000
vn 0.000000 0.000000 1.000000
vn 0.000000 0.000000 1.000000
vn 0.000000 0.000000 1.000000
vn -1.000000 0.000000 0.000000
vn -1.000000 0.000000 0.000000
vn -1.000000 0.000000 0.000000
vn -1.000000 0.000000 0.000000
vn 0.000000 -0.000000 -1.000000
vn 0.000000 -0.000000 -1.000000
vn 0.000000 0.000000 -1.000000
vn 0.000000 0.000000 -1.000000
vn 1.000000 0.000000 0.000000
vn 1.000000 0.000000 0.000000
vn 1.000000 0.000000 0.000000
vn 1.000000 0.000000 0.000000
vn 0.000000 -0.999999 0.001584
vn 0.000000 -0.999999 0.001584
vn 0.000000 -0.999999 0.001584
vn 0.000000 -0.999999 0.001583
vn -1.000000 0.000000 0.000000
vn -1.000000 0.000000 0.000000
vn -1.000000 0.000000 0.000000
vn -1.000000 0.000000 0.000000
vn 0.000000 0.999994 0.003414
vn 0.000000 0.999994 0.003414
vn 0.000000 0.999994 0.003414
vn 0.000000 0.999994 0.003414
s 1
g pCube1
usemtl lambert2SG
f 1/145/1 2/146/2 7/147/3
f 7/147/3 2/146/2 8/148/4
f 2/146/2 3/149/5 8/148/4
f 8/148/4 3/149/5 9/150/6
f 3/149/5 4/151/7 9/150/6
f 9/150/6 4/151/7 10/152/8
f 4/151/7 5/153/9 10/152/8
f 10/152/8 5/153/9 11/154/10
f 5/153/9 6/155/11 11/154/10
f 11/154/10 6/155/11 12/156/12
s 2
f 7/57/13 8/58/14 28/59/15
f 28/59/15 8/58/14 27/60/16
f 8/58/14 9/61/17 27/60/16
f 27/60/16 9/61/17 26/63/18
f 9/61/17 10/65/19 26/63/18
f 26/63/18 10/65/19 25/67/20
f 10/65/19 11/70/21 25/67/20
f 25/67/20 11/70/21 36/72/22
f 11/70/21 12/75/23 36/72/22
f 36/72/22 12/75/23 35/78/24
s 3
f 13/157/25 14/158/26 19/159/27
f 19/159/27 14/158/26 20/160/28
f 14/158/26 15/161/29 20/160/28
f 20/160/28 15/161/29 21/162/30
f 15/161/29 16/163/31 21/162/30
f 21/162/30 16/163/31 22/164/32
f 16/163/31 17/165/33 22/164/32
f 22/164/32 17/165/33 23/166/34
f 17/165/33 18/167/35 23/166/34
f 23/166/34 18/167/35 24/168/36
s 4
f 29/93/37 30/94/38 1/95/39
f 1/95/39 30/94/38 2/97/40
f 30/94/38 31/100/41 2/97/40
f 2/97/40 31/100/41 3/103/42
f 31/100/41 32/107/43 3/103/42
f 3/103/42 32/107/43 4/111/44
f 32/107/43 33/116/45 4/111/44
f 4/111/44 33/116/45 5/121/46
f 33/116/45 34/127/47 5/121/46
f 5/121/46 34/127/47 6/128/48
s 5
f 6/1/49 34/2/50 12/3/51
f 12/3/51 34/2/50 35/4/52
s 6
f 29/13/53 1/14/54 28/15/55
f 28/15/55 1/14/54 7/16/56
s 7
f 74/129/57 73/130/58 76/131/59
f 76/131/59 73/130/58 75/132/60
s 2
f 27/60/16 26/63/18 39/64/61
f 39/64/61 26/63/18 38/68/62
f 28/59/15 27/60/16 40/62/63
f 40/62/63 27/60/16 39/64/61
s 6
f 41/18/64 29/13/53 40/17/65
f 40/17/65 29/13/53 28/15/55
s 4
f 41/98/66 42/96/67 29/93/37
f 29/93/37 42/96/67 30/94/38
f 42/96/67 43/99/68 30/94/38
f 30/94/38 43/99/68 31/100/41
f 43/99/68 44/106/69 31/100/41
f 31/100/41 44/106/69 32/107/43
f 44/106/69 45/115/70 32/107/43
f 32/107/43 45/115/70 33/116/45
f 45/115/70 46/126/71 33/116/45
f 33/116/45 46/126/71 34/127/47
s 5
f 35/4/52 34/2/50 47/5/72
f 47/5/72 34/2/50 46/6/73
s 2
f 36/72/22 35/78/24 48/79/74
f 48/79/74 35/78/24 47/83/75
f 25/67/20 36/72/22 37/76/76
f 37/76/76 36/72/22 48/79/74
f 38/68/62 37/76/76 62/73/77
f 62/73/77 37/76/76 61/80/78
f 39/64/61 38/68/62 63/69/79
f 63/69/79 38/68/62 62/73/77
f 40/62/63 39/64/61 64/66/80
f 64/66/80 39/64/61 63/69/79
s 6
f 65/20/81 41/18/64 64/19/82
f 64/19/82 41/18/64 40/17/65
s 4
f 65/104/83 66/101/84 41/98/66
f 41/98/66 66/101/84 42/96/67
f 66/101/84 67/102/85 42/96/67
f 42/96/67 67/102/85 43/99/68
f 67/102/85 68/105/86 43/99/68
f 43/99/68 68/105/86 44/106/69
f 68/105/86 69/114/87 44/106/69
f 44/106/69 69/114/87 45/115/70
f 69/114/87 70/125/88 45/115/70
f 45/115/70 70/125/88 46/126/71
s 5
f 47/5/72 46/6/73 71/7/89
f 71/7/89 46/6/73 70/8/90
s 2
f 48/79/74 47/83/75 72/84/91
f 72/84/91 47/83/75 71/87/92
f 37/76/76 48/79/74 61/80/78
f 61/80/78 48/79/74 72/84/91
f 50/81/93 49/86/94 15/85/95
f 15/85/95 49/86/94 16/89/96
f 51/74/97 50/81/93 14/82/98
f 14/82/98 50/81/93 15/85/95
f 52/71/99 51/74/97 13/77/100
f 13/77/100 51/74/97 14/82/98
s 6
f 19/24/101 53/22/102 13/23/103
f 13/23/103 53/22/102 52/21/104
s 4
f 19/122/105 20/117/106 53/112/107
f 53/112/107 20/117/106 54/108/108
f 20/117/106 21/118/109 54/108/108
f 54/108/108 21/118/109 55/109/110
f 21/118/109 22/119/111 55/109/110
f 55/109/110 22/119/111 56/110/112
f 22/119/111 23/120/113 56/110/112
f 56/110/112 23/120/113 57/113/114
f 23/120/113 24/123/115 57/113/114
f 57/113/114 24/123/115 58/124/116
s 5
f 59/9/117 58/10/118 18/11/119
f 18/11/119 58/10/118 24/12/120
s 2
f 60/88/121 59/90/122 17/91/123
f 17/91/123 59/90/122 18/92/124
f 49/86/94 60/88/121 16/89/96
f 16/89/96 60/88/121 17/91/123
s 18
f 78/133/125 77/134/126 80/135/127
f 80/135/127 77/134/126 79/136/128
s 2
f 63/69/79 62/73/77 51/74/97
f 51/74/97 62/73/77 50/81/93
f 64/66/80 63/69/79 52/71/99
f 52/71/99 63/69/79 51/74/97
s 6
f 53/22/102 65/20/81 52/21/104
f 52/21/104 65/20/81 64/19/82
s 4
f 53/112/107 54/108/108 65/104/83
f 65/104/83 54/108/108 66/101/84
f 54/108/108 55/109/110 66/101/84
f 66/101/84 55/109/110 67/102/85
f 55/109/110 56/110/112 67/102/85
f 67/102/85 56/110/112 68/105/86
f 56/110/112 57/113/114 68/105/86
f 68/105/86 57/113/114 69/114/87
f 57/113/114 58/124/116 69/114/87
f 69/114/87 58/124/116 70/125/88
s 5
f 71/7/89 70/8/90 59/9/117
f 59/9/117 70/8/90 58/10/118
s 2
f 72/84/91 71/87/92 60/88/121
f 60/88/121 71/87/92 59/90/122
f 61/80/78 72/84/91 49/86/94
f 49/86/94 72/84/91 60/88/121
s 19
f 26/169/129 25/170/130 91/171/131
f 91/171/131 25/170/130 90/172/132
s 20
f 25/25/133 37/26/134 90/27/135
f 90/27/135 37/26/134 89/28/136
s 21
f 37/177/137 38/178/138 89/179/139
f 89/179/139 38/178/138 92/180/140
s 22
f 38/41/141 26/42/142 92/206/143
f 92/206/143 26/42/142 91/44/144
s 23
f 62/181/145 61/182/146 95/183/147
f 95/183/147 61/182/146 94/184/148
s 24
f 61/38/149 49/36/150 94/31/151
f 94/31/151 49/36/150 93/35/152
s 25
f 49/185/153 50/186/154 93/187/155
f 93/187/155 50/186/154 96/188/156
s 26
f 50/56/157 62/54/158 96/52/159
f 96/52/159 62/54/158 95/203/160
s 22
f 82/201/161 81/46/162 76/48/163
f 76/48/163 81/46/162 74/50/164
s 28
f 83/193/165 82/194/166 75/195/167
f 75/195/167 82/194/166 76/196/168
s 20
f 84/29/169 83/30/170 73/32/171
f 73/32/171 83/30/170 75/34/172
s 19
f 81/173/173 84/174/174 74/175/175
f 74/175/175 84/174/174 73/176/176
s 24
f 86/33/177 85/37/178 77/39/179
f 77/39/179 85/37/178 79/40/180
s 32
f 87/197/181 86/198/182 78/199/183
f 78/199/183 86/198/182 77/200/184
s 26
f 88/51/185 87/205/186 80/53/187
f 80/53/187 87/205/186 78/55/188
s 25
f 85/189/189 88/190/190 79/191/191
f 79/191/191 88/190/190 80/192/192
s 20
f 90/27/135 89/28/136 84/29/169
f 84/29/169 89/28/136 83/30/170
s 19
f 91/171/131 90/172/132 81/173/173
f 81/173/173 90/172/132 84/174/174
s 22
f 92/206/143 91/44/144 82/201/161
f 82/201/161 91/44/144 81/46/162
s 24
f 94/31/151 93/35/152 86/33/177
f 86/33/177 93/35/152 85/37/178
s 26
f 96/52/159 95/203/160 88/51/185
f 88/51/185 95/203/160 87/205/186
s 25
f 93/187/155 96/188/156 85/189/189
f 85/189/189 96/188/156 88/190/190
s 35
f 89/28/193 94/31/194 83/30/195
f 83/30/195 94/31/194 86/33/196
s 36
f 89/137/197 92/138/198 94/139/199
f 94/139/199 92/138/198 95/140/200
s 37
f 92/43/201 82/202/202 95/47/203
f 95/204/203 82/45/202 87/49/204
s 38
f 82/141/205 83/142/206 87/143/207
f 87/143/207 83/142/206 86/144/208
