# This file uses centimeters as units for non-parametric coordinates.

v -3.500000 -4.000000 3.500000
v 3.500000 -4.000000 3.500000
v -3.500000 4.000000 3.500000
v 3.500000 4.000000 3.500000
v -3.500000 4.000000 -3.500000
v 3.500000 4.000000 -3.500000
v -3.500000 -4.000000 -3.500000
v 3.500000 -4.000000 -3.500000
v -0.290614 5.484999 0.288818
v 0.288818 5.483570 0.290614
v 0.290614 5.483228 -0.288818
v -0.288818 5.484656 -0.290614
vt 0.041092 0.670171
vt 0.343244 0.670171
vt 0.343244 0.972323
vt 0.041092 0.972323
vt 0.349970 0.670171
vt 0.652121 0.670171
vt 0.652121 0.972323
vt 0.349970 0.972323
vt 0.488501 0.197530
vt 0.513512 0.197453
vt 0.513590 0.222463
vt 0.488579 0.222541
vt 0.349970 0.058921
vt 0.652121 0.058921
vt 0.652121 0.361072
vt 0.349970 0.361072
vt 0.298295 0.364546
vt 0.600447 0.364546
vt 0.600447 0.666698
vt 0.298295 0.666698
vt 0.041092 0.058921
vt 0.343244 0.058921
vt 0.343244 0.361072
vt 0.041092 0.361072
vt 0.605786 0.364546
vt 0.907938 0.364546
vt 0.907938 0.666698
vt 0.605786 0.666698
vn 0.000000 0.000000 1.000000
vn 0.000000 0.000000 1.000000
vn 0.000000 0.190458 0.981695
vn 0.000002 0.174976 0.984573
vn 0.002467 0.999997 -0.000582
vn 0.002467 0.999997 -0.000583
vn 0.002467 0.999997 -0.000583
vn 0.002467 0.999997 -0.000584
vn 0.000006 0.174972 -0.984573
vn 0.000000 0.190457 -0.981696
vn 0.000000 0.000000 -1.000000
vn 0.000000 0.000000 -1.000000
vn 0.000000 -1.000000 0.000000
vn 0.000000 -1.000000 0.000000
vn 0.000000 -1.000000 0.000000
vn 0.000000 -1.000000 0.000000
vn 1.000000 0.000000 0.000000
vn 1.000000 0.000000 0.000000
vn 0.981696 0.190457 0.000000
vn 0.984573 0.174972 0.000001
vn -1.000000 0.000000 0.000000
vn -1.000000 0.000000 0.000000
vn -0.981695 0.190458 0.000000
vn -0.984573 0.174976 -0.000003
vn 0.000036 0.907662 0.419702
vn 0.000940 0.908068 0.418823
vn 0.419433 0.907786 0.000029
vn 0.420150 0.907454 0.000767
vn 0.000136 0.907776 -0.419457
vn 0.003545 0.906231 -0.422768
vn -0.419726 0.907651 -0.000070
vn -0.421448 0.906851 -0.001843
f 1/21/1 2/22/2 3/24/3
f 3/24/3 2/22/2 4/23/4
f 9/9/5 10/10/6 12/12/7
f 12/12/7 10/10/6 11/11/8
f 5/25/9 6/26/10 7/28/11
f 7/28/11 6/26/10 8/27/12
f 7/17/13 8/18/14 1/20/15
f 1/20/15 8/18/14 2/19/16
f 2/1/17 8/2/18 4/4/19
f 4/4/19 8/2/18 6/3/20
f 7/5/21 1/6/22 5/8/23
f 5/8/23 1/6/22 3/7/24
f 3/13/3 4/14/4 9/9/25
f 4/14/4 10/10/26 9/9/25
f 4/14/19 6/15/20 10/10/27
f 6/15/20 11/11/28 10/10/27
f 6/15/10 5/16/9 11/11/29
f 5/16/9 12/12/30 11/11/29
f 5/16/23 3/13/24 12/12/31
f 3/13/24 9/9/32 12/12/31
